<svg width="372.68" height="46.6" version="1.1" xmlns="http://www.w3.org/2000/svg" xmlns:xlink="http://www.w3.org/1999/xlink"
	 viewBox="0 0 372.68 46.6">
<style type="text/css">
	.st0{fill:#F36E21;}
	.st1{fill:#FFFFFF;}
</style>
<g>
	<g>
		<path d="M93.34,45.78c-3.89,0-7.31-0.86-10.24-2.59c-2.94-1.73-5.22-4.14-6.85-7.24c-1.63-3.1-2.44-6.74-2.44-10.92
			c0-4.18,0.81-7.82,2.44-10.92c1.63-3.1,3.9-5.5,6.82-7.21s6.34-2.57,10.27-2.57s7.36,0.86,10.3,2.57
			c2.94,1.71,5.22,4.11,6.85,7.21c1.63,3.1,2.44,6.72,2.44,10.86c0,4.18-0.81,7.83-2.44,10.94c-1.63,3.12-3.91,5.54-6.85,7.27
			C100.71,44.91,97.27,45.78,93.34,45.78z M93.34,38.25c3.29,0,5.86-1.17,7.72-3.51s2.78-5.58,2.78-9.72c0-4.18-0.92-7.42-2.75-9.72
			c-1.83-2.3-4.41-3.45-7.74-3.45c-3.25,0-5.81,1.15-7.66,3.45c-1.85,2.3-2.78,5.54-2.78,9.72c0,4.14,0.93,7.38,2.78,9.72
			S90.09,38.25,93.34,38.25z"/>
		<path d="M133.81,45.78c-2.39,0-4.79-0.27-7.18-0.8c-2.39-0.53-4.47-1.31-6.23-2.34c-1.05-0.57-1.7-1.34-1.96-2.31
			c-0.26-0.97-0.21-1.91,0.17-2.82c0.37-0.91,0.97-1.56,1.8-1.94c0.82-0.38,1.81-0.29,2.97,0.29c1.5,0.87,3.16,1.52,4.99,1.94
			c1.83,0.42,3.65,0.63,5.44,0.63c2.69,0,4.63-0.43,5.81-1.28c1.18-0.85,1.77-1.93,1.77-3.22c0-1.1-0.41-1.98-1.23-2.62
			c-0.82-0.65-2.26-1.2-4.32-1.65l-6.34-1.37c-7.07-1.52-10.61-5.24-10.61-11.17c0-2.55,0.67-4.78,2.02-6.7
			c1.35-1.92,3.23-3.41,5.64-4.48c2.41-1.06,5.21-1.6,8.39-1.6c2.09,0,4.15,0.26,6.17,0.77c2.02,0.51,3.8,1.26,5.33,2.25
			c0.93,0.57,1.52,1.31,1.74,2.22c0.22,0.91,0.16,1.79-0.2,2.62c-0.36,0.84-0.95,1.43-1.8,1.77c-0.84,0.34-1.88,0.21-3.11-0.4
			c-1.23-0.65-2.54-1.12-3.93-1.42c-1.38-0.3-2.81-0.46-4.27-0.46c-2.36,0-4.18,0.47-5.47,1.4c-1.29,0.93-1.94,2.14-1.94,3.62
			c0,1.1,0.39,2,1.18,2.68s2.15,1.24,4.1,1.65l6.34,1.37c7.26,1.6,10.89,5.21,10.89,10.83c0,2.51-0.66,4.7-1.99,6.58
			c-1.33,1.88-3.2,3.34-5.61,4.39C139.95,45.25,137.1,45.78,133.81,45.78z"/>
		<path d="M168.6,45.66c-1.42,0-2.51-0.4-3.25-1.2c-0.75-0.8-1.12-1.92-1.12-3.36V12.26h-9.93c-2.43,0-3.65-1.22-3.65-3.65
			c0-2.43,1.22-3.65,3.65-3.65h28.56c2.43,0,3.65,1.22,3.65,3.65c0,2.43-1.22,3.65-3.65,3.65h-9.93V41.1c0,1.44-0.36,2.57-1.09,3.36
			S170.02,45.66,168.6,45.66z"/>
		<path d="M194.81,45.15c-3.03,0-4.55-1.54-4.55-4.62V9.58c0-3.08,1.52-4.62,4.55-4.62h19.58c2.28,0,3.42,1.14,3.42,3.42
			c0,2.32-1.14,3.48-3.42,3.48h-15.83v9.41h14.53c2.32,0,3.48,1.16,3.48,3.48c0,2.32-1.16,3.48-3.48,3.48h-14.53v10.03h15.83
			c2.28,0,3.42,1.14,3.42,3.42c0,2.32-1.14,3.48-3.42,3.48H194.81z"/>
		<path d="M228.64,45.15c-1.46,0-2.56-0.39-3.31-1.17c-0.75-0.78-1.12-1.89-1.12-3.33V9.35c0-1.44,0.37-2.56,1.12-3.33
			c0.75-0.78,1.83-1.17,3.25-1.17c2.88,0,4.32,1.5,4.32,4.5v28.33h15.04c2.51,0,3.76,1.24,3.76,3.71c0,2.51-1.25,3.76-3.76,3.76
			H228.64z"/>
		<path d="M260.74,45.66c-1.42,0-2.51-0.4-3.25-1.2c-0.75-0.8-1.12-1.92-1.12-3.36V9.01c0-3.04,1.46-4.56,4.38-4.56
			c2.88,0,4.32,1.52,4.32,4.56V21.1h18.41V9.01c0-3.04,1.44-4.56,4.32-4.56c2.92,0,4.38,1.52,4.38,4.56V41.1
			c0,1.44-0.38,2.57-1.12,3.36c-0.75,0.8-1.83,1.2-3.25,1.2c-1.38,0-2.45-0.4-3.2-1.2c-0.75-0.8-1.12-1.92-1.12-3.36V28.45h-18.41
			V41.1C265.06,44.14,263.62,45.66,260.74,45.66z"/>
		<path d="M304.52,45.66c-1.42,0-2.51-0.4-3.25-1.2c-0.75-0.8-1.12-1.92-1.12-3.36V9.01c0-3.04,1.46-4.56,4.38-4.56
			c2.88,0,4.32,1.52,4.32,4.56V41.1C308.84,44.14,307.4,45.66,304.52,45.66z"/>
	</g>
	<g>
		<path d="M349.67,45.15c-3.03,0-4.54-1.54-4.54-4.62V9.58c0-3.08,1.51-4.62,4.54-4.62h19.59c2.28,0,3.42,1.14,3.42,3.42
			c0,2.32-1.14,3.48-3.42,3.48h-15.83v9.41h14.53c2.32,0,3.48,1.16,3.48,3.48c0,2.32-1.16,3.48-3.48,3.48h-14.53v10.03h15.83
			c2.28,0,3.42,1.14,3.42,3.42c0,2.32-1.14,3.48-3.42,3.48H349.67z"/>
	</g>
	<path d="M62.7,7.54h-0.6v15.65H8.76V0h-0.6C3.65,0,0,3.65,0,8.16v38.23h0.6c4.36,0,7.91-3.43,8.14-7.73v-2.47
		c0-3.15,2.56-5.71,5.71-5.71h42c3.15,0,5.71,2.56,5.71,5.71v2.85c0.41,4.13,3.87,7.35,8.1,7.35h0.6V15.71
		C70.86,11.2,67.2,7.54,62.7,7.54z"/>
	<path class="st0" d="M27.94,21.18H10.58v-3.78c0-1.64,1.33-2.96,2.96-2.96h11.44c1.64,0,2.96,1.33,2.96,2.96V21.18z"/>
	<g>
		<circle class="st0" cx="327.45" cy="33.13" r="3.47"/>
		<path class="st0" d="M322.85,34.12c0,0-5.23-3.47-8.92,2.65C313.92,36.77,320.64,40.2,322.85,34.12z"/>
		<path class="st0" d="M331.45,34.12c0,0,5.23-3.47,8.92,2.65C340.38,36.77,333.66,40.2,331.45,34.12z"/>
		<path class="st0" d="M326.37,43.72v-4.97c0,0-5.55-3.87-10.53,4.67l4.21,3.18c0.78-0.5,2.12-1.36,3.26-1.85
			C324.43,44.27,325.48,43.94,326.37,43.72z"/>
		<path class="st0" d="M328.09,43.72v-4.97c0,0,5.55-3.87,10.53,4.67l-4.21,3.18c-0.78-0.5-2.12-1.36-3.26-1.85
			C330.03,44.27,328.99,43.94,328.09,43.72z"/>
		<g>
			<polygon class="st0" points="324.85,31.43 323.01,28.91 319.9,28.91 319.9,30.17 318.9,30.17 318.9,27.91 323.52,27.91 
				325.66,30.84 			"/>
		</g>
		<g>
			<polygon class="st0" points="329.86,31.43 329.05,30.84 331.19,27.91 335.81,27.91 335.81,30.17 334.81,30.17 334.81,28.91 
				331.7,28.91 			"/>
		</g>
		<path class="st0" d="M321.29,7.18c1.02,2,4.37,19.66,4.37,19.66s-10.59-13.96-11.61-15.96s-0.23-4.45,1.77-5.47
			C317.82,4.39,320.27,5.18,321.29,7.18z"/>
		<path class="st0" d="M333.42,7.18c-1.02,2-4.37,19.66-4.37,19.66s10.59-13.96,11.61-15.96s0.23-4.45-1.77-5.47
			S334.44,5.18,333.42,7.18z"/>
	</g>
</g>
</svg>
